PathFileType	4	(X/Y/Z)	C:/Users/beibeiliu/ov580/test_trc/User2\sequence.32_training_dense_right.trc
DataRate	CameraRate	NumFrames	NumMarkers	Units	OrigDataRate	OrigDataStartFrame	OrigNumFrames
120	120	12	19	mm	120	207	330
Frame#	Time	ThumbCMC			ThumbMCP			ThumbIP			ThumbTip			IndexMCP			IndexPIP			IndexTip			MiddleMCP			MiddlePIP			MiddleTip			RingMCP			RingPIP			RingTip			PinkyMCP			PinkyPIP			PinkyTip			BackHand1			BackHand2			BackHand3	
		X0	Y0	Z0	X1	Y1	Z1	X2	Y2	Z2	X3	Y3	Z3	X4	Y4	Z4	X5	Y5	Z5	X6	Y6	Z6	X7	Y7	Z7	X8	Y8	Z8	X9	Y9	Z9	X10	Y10	Z10	X11	Y11	Z11	X12	Y12	Z12	X13	Y13	Z13	X14	Y14	Z14	X15	Y15	Z15	X16	Y16	Z16	X17	Y17	Z17	X18	Y18	Z18	
206	1.71667	30.6375	-62.6743	70.6445	10.2512	-88.4148	66.6637	-12.1552	-112.863	56.6341	-23.5022	-131.307	50.1124	31.4959	-60.4542	-14.8141	19.7811	-67.2212	-37.4601	13.2965	-72.6525	-63.7057	60.4405	-59.0182	-23.4513	58.3765	-69.2032	-55.0102	52.9539	-80.9005	-85.9062	88.068	-65.8058	-20.9814	89.5279	-77.7248	-49.9921	88.7252	-88.5261	-76.7118	108.64	-77.1842	-5.86026	111.657	-93.2767	-30.6164	116.173	-103.563	-49.1828	88.9202	-43.3472	29.5241	96.5868	-32.0528	58.0888	59.1515	-37.1468	46.8555	
207	1.725	30.5175	-67.3305	73.5607	11.9831	-94.0643	66.2805	-13.0823	-118.239	59.3258	-23.4577	-137.8	54.0555	27.3099	-66.2354	-13.3086	19.4734	-72.3181	-38.3663	11.5632	-79.7665	-60.9202	56.7979	-66.3504	-28.0593	55.5186	-74.5573	-54.4825	49.6422	-85.7365	-86.4143	85.5414	-71.5281	-19.7585	87.5969	-81.8447	-50.617	86.8546	-88.7808	-72.9361	106.541	-82.2304	-4.44902	116.22	-96.4212	-29.8931	117.037	-103.55	-50.1456	88.0525	-48.2113	29.3974	96.8972	-34.377	60.6615	57.0315	-39.665	48.9489	
208	1.73333	28.2136	-72.9807	72.8287	10.1721	-98.8373	70.6907	-11.0284	-124.926	59.5725	-25.3858	-145.708	53.1881	25.75	-71.6087	-10.4235	15.9443	-77.8964	-33.6259	7.49558	-85.9836	-64.4878	53.8386	-71.7659	-26.6423	54.7847	-79.9665	-54.9916	51.2403	-90.2969	-84.1509	81.3159	-76.3853	-20.3862	83.1941	-85.2185	-44.1838	85.2255	-92.477	-72.7231	106.281	-87.7919	-8.56565	115.568	-98.2585	-26.0292	117.618	-104.502	-48.9182	85.352	-55.7299	30.078	92.258	-40.0885	56.6947	55.5891	-46.9839	44.5057	
209	1.74167	25.9153	-77.3229	75.1315	9.74181	-105.206	69.6799	-9.34699	-129.59	62.7006	-24.1815	-152.208	55.8169	25.6526	-77.9653	-7.90864	16.1643	-85.3806	-35.505	9.46952	-91.7788	-59.0991	55.6843	-77.2608	-22.9911	53.6168	-85.8146	-54.9853	46.8004	-96.3962	-83.6332	80.6187	-81.6603	-20.2834	85.3592	-91.1146	-49.723	85.3225	-97.3825	-76.5484	104.829	-92.2267	-6.47128	112.947	-103.339	-30.2001	118.794	-107.427	-49.057	88.2001	-61.7375	27.9104	93.9311	-46.8451	57.7769	56.6886	-52.5345	45.7457	
210	1.75	30.1483	-81.1424	74.6187	11.0366	-110.41	68.2366	-9.11942	-136.656	61.886	-20.9944	-155.2	61.4256	23.3335	-84.4192	-9.97204	16.2083	-91.0664	-32.9347	4.14767	-98.8109	-60.7133	54.3042	-83.6798	-26.5499	47.1692	-91.8952	-53.8898	46.8793	-102.049	-81.1712	80.8692	-86.8927	-17.2749	80.9783	-96.2216	-46.2222	80.5564	-101.824	-72.1555	105.183	-96.3826	-0.789584	112.118	-107.979	-26.0343	118.514	-113.226	-47.8477	83.4064	-66.3267	31.2371	90.9671	-48.3313	60.1637	53.3935	-55.3505	48.2556	
211	1.75833	24.8067	-88.4204	76.9698	7.465	-114.233	76.6034	-13.0927	-141.634	67.6385	-24.8575	-162.791	64.154	22.0004	-92.3713	-9.46031	12.9284	-98.7551	-32.1047	3.4601	-107.467	-59.0905	51.377	-89.5215	-20.63	48.9208	-99.5924	-49.8011	46.2234	-108.991	-79.449	78.0747	-94.9569	-19.1709	84.1435	-101.904	-44.3929	84.4133	-108.521	-70.7684	105.909	-102.821	-2.00397	110.853	-112.715	-20.7717	121.693	-117.803	-46.5903	82.0986	-71.9726	30.1863	92.2631	-56.7001	61.4205	53.3673	-61.8104	47.2132	
212	1.76667	24.0508	-92.3876	76.5093	11.714	-118.325	74.8384	-12.7536	-145.215	69.3897	-24.3823	-167.27	64.0412	21.7759	-94.983	-7.47275	13.3633	-102.997	-29.1571	3.75632	-111.392	-57.2249	52.6098	-93.0409	-23.4575	47.6347	-102.503	-48.2642	47.9097	-112.098	-78.4743	82.9201	-97.7067	-19.6261	81.8026	-105.441	-44.3093	83.1537	-111.53	-70.3587	107.218	-106.309	-2.40775	114.304	-116.08	-23.7813	123.351	-122.106	-45.3948	82.9701	-73.3136	32.3217	87.8701	-60.0958	60.0543	51.0853	-65.2476	49.7633	
213	1.775	26.7723	-91.8286	77.7672	7.50882	-120.522	73.1264	-11.513	-147.419	66.9294	-23.9812	-169.317	60.276	23.4498	-95.236	-4.10049	13.314	-103.533	-29.6057	3.93148	-113.213	-57.8641	53.4721	-92.5205	-19.1419	50.1337	-102.294	-50.3877	51.1743	-114.978	-82.6488	78.5964	-97.7674	-18.5972	82.9036	-106.267	-41.3472	80.936	-113.638	-71.905	105.957	-106.432	-0.0731249	116.461	-118.123	-21.9423	120.475	-123.866	-43.3653	85.0708	-72.6183	35.1795	91.3331	-58.5168	63.5782	51.5272	-63.8517	53.8848	
214	1.78333	25.9473	-90.943	79.5205	11.9092	-117.94	74.6764	-12.3505	-146.538	66.7087	-22.7094	-167.09	63.2908	23.4881	-94.8905	-6.2694	15.8313	-103.815	-31.3663	5.56178	-115.631	-56.7257	52.3522	-92.4012	-20.3144	54.0607	-102.152	-49.5356	48.8316	-116.468	-80.1828	79.5256	-97.1623	-18.4404	83.6688	-106.135	-43.9098	84.1556	-115.487	-68.5296	108.938	-106.604	-0.146837	115.081	-119.345	-24.0212	121.563	-127.026	-44.6946	87.1408	-74.2274	31.1949	93.73	-58.122	60.2146	55.2044	-64.9886	53.0786	
215	1.79167	26.811	-90.3918	77.6498	9.36022	-118.453	72.1073	-9.34379	-143.881	66.3032	-22.114	-165.97	60.6555	25.8793	-93.5094	-8.84984	14.3903	-102.628	-33.4661	7.42604	-116.755	-56.4622	51.6939	-91.4084	-22.1488	52.5062	-101.713	-50.2925	52.0143	-120.429	-80.4213	84.1672	-97.1665	-17.365	82.4597	-107.653	-45.1284	81.9194	-119.329	-66.7042	107.322	-105.749	-1.42986	116.965	-119.181	-21.0314	120.929	-129.047	-41.6316	85.8939	-72.7282	34.5964	92.0578	-58.0805	62.4116	51.8499	-62.8051	51.2174	
216	1.8	24.9384	-88.6119	78.9039	10.9606	-116.479	73.2174	-8.31056	-144.318	63.0773	-21.6309	-165.617	56.5688	24.2369	-90.5143	-6.13316	14.9469	-101.178	-31.8321	9.05894	-116.855	-56.3897	52.7619	-88.2592	-17.6143	52.3856	-103.778	-53.181	46.5572	-123.12	-76.6484	80.8491	-95.6597	-18.5712	83.8112	-107.925	-41.5538	79.9014	-127.38	-67.8222	106.792	-106.089	-0.199286	111.23	-123.368	-23.6121	118.652	-141.311	-42.7268	84.6796	-71.0773	32.512	94.2097	-57.2669	60.6203	56.1406	-62.0444	55.012	
217	1.80833	26.9141	-87.0239	80.0891	8.63579	-114.268	75.2916	-11.4459	-142.793	63.0741	-16.8768	-163.497	55.0808	21.4774	-86.5642	-4.66308	11.0257	-98.7303	-31.0138	6.25781	-116.842	-55.0457	54.293	-85.6743	-21.214	52.1839	-100.514	-51.5961	48.3696	-127.192	-75.89	80.5978	-93.9166	-18.1894	83.8799	-110.202	-42.7264	76.5523	-132.807	-62.4378	106.543	-104.898	0.192346	110.322	-124.724	-21.1684	107.327	-145.317	-37.6946	87.3333	-70.8837	36.5835	93.9777	-56.0635	61.502	55.0997	-60.6691	54.256	
